<svg xmlns="http://www.w3.org/2000/svg" xmlns:xlink="http://www.w3.org/1999/xlink" width="767.095" height="470.623" viewBox="0 0 767.095 470.623"><defs><style>.a{fill:url(#a);}.b{fill:#0057c2;}.c{fill:#013195;}.d{fill:#eea19c;}.e{fill:#3f94f5;}.f{fill:#fbf9fb;}.g{fill:#df908a;}.h{fill:#2a2a2a;}.i{fill:url(#b);}.j{fill:#00a0e1;}.k{fill:#12b2f3;}.l{fill:#024;}.m{fill:#fed53f;stroke:#dfa430;stroke-miterlimit:10;}.n{fill:#033c74;}.o{fill:url(#c);}.p{fill:#dfa430;}.q{fill:#8cb7fc;}.r{fill:#0a4a75;}.s{fill:#186ba2;}.t{fill:#b4efff;}.u{fill:#76c9df;}</style><linearGradient id="a" x1="1.262" y1="-0.248" x2="0.149" y2="0.782" gradientUnits="objectBoundingBox"><stop offset="0" stop-color="#032748" stop-opacity="0"/><stop offset="1" stop-color="#033257"/></linearGradient><linearGradient id="b" x1="0.149" y1="0.676" x2="0.956" y2="0.193" gradientUnits="objectBoundingBox"><stop offset="0" stop-color="#022f54" stop-opacity="0"/><stop offset="1" stop-color="#042846"/></linearGradient><linearGradient id="c" y1="0.5" x2="1" y2="0.5" gradientUnits="objectBoundingBox"><stop offset="0" stop-color="#fff" stop-opacity="0"/><stop offset="1" stop-color="#fff" stop-opacity="0.2"/></linearGradient></defs><g transform="translate(-897.452 -212.302)"><g transform="translate(897.463 212.302)"><g transform="translate(-0.011)"><path class="a" d="M518.173,331.106s-29.774,19.382,78.462,37.827,138.5-14.653,141.354-37.339,38.285-22.219,30.252-27.873-104.015-6.172-137.572,3.245S518.173,331.106,518.173,331.106Z" transform="translate(-2.328 -1.362)"/><path class="b" d="M695.431,302s-5.136,6.968-9.367,9.367-8.461,7.555-3.325,11.179,6.65-5.734,14.2-7.555,7.555-2.489,7.555-9.059c0-4.2-1.812-3.922-1.812-3.922Z" transform="translate(-3.082 -1.373)"/><path class="b" d="M725.358,318.13s.129,6.49-1.314,9.855-2.658,11.537,1.314,12.5,12.632-.239,8.063-22.358Z" transform="translate(-3.275 -1.446)"/><path class="c" d="M684.069,184.577s-8.352,13.08-2.538,53.486c7.575,52.59,13.936,63.43,13.936,63.43s7.327,4.191,7.247,0c-.338-17.5-.338-78.223-.338-78.223s.767-12.871,4.071,0c3.444,13.419,7.964,46.229,18.306,94.837,0,0,4.977,3.982,9.059,0,0,0-1.812-102.114-10.4-134.645C720.871,173.955,684.069,184.577,684.069,184.577Z" transform="translate(-3.078 -0.816)"/><path class="d" d="M686.442,132.357c-7.048,6.729-18.038,15.927-26.648,20.616a40.316,40.316,0,0,1-5.973,2.658,190.7,190.7,0,0,1-25.693,7.4,2.18,2.18,0,0,1-1.254-4.161,176.07,176.07,0,0,0,26.479-13.05c7.844-5.146,17.58-15.39,23.393-22.447a6.63,6.63,0,1,1,9.716,8.959Z" transform="translate(-2.833 -0.549)"/><path class="d" d="M752.146,160.025c2.419,8.292,2.18,13.727.8,18.914-2.6,9.855-8.959,22.328-14.116,31.068a2.182,2.182,0,1,1-3.882-1.991c3.574-8.471,9.646-25.1,9.556-34.263-.309-6.689-4.49-14.3-8.4-19.77-.547-.767-1.991-2.7-2.2-2.857a6.759,6.759,0,1,1,9.955-8.959,70.309,70.309,0,0,1,8.292,17.858Z" transform="translate(-3.315 -0.633)"/><path class="e" d="M717.3,119.9c-11.03-2.737-25.066-6.042-29.864-5.435S667.2,125.649,665.09,134.1a16.714,16.714,0,0,0,9.955,11.776l6.341-3.922s-3.215,38.823.408,45.154,20.536,9.059,27.186,7.555,16.923-8.153,16.923-8.153l.677-35.11a51.638,51.638,0,0,0,9.128,6.869c4.828,2.718,13.936-5.435,13.936-9.666C749.614,148.594,733.02,123.807,717.3,119.9Z" transform="translate(-3.013 -0.52)"/><path class="d" d="M629.559,160.643c.169,3.454-3.643,6.451-8.521,6.7s-8.959-2.369-9.138-5.823c-.129-2.558,6.132-1.921,9.2-3.036,1.065-.388-1.931-3.594-.677-3.653C625.3,154.581,629.39,157.189,629.559,160.643Z" transform="translate(-2.771 -0.704)"/><path class="e" d="M629.65,156.439l2.11,7.854s38.823-11.328,49.444-22.278S666.83,130,666.83,130,643.845,150.1,629.65,156.439Z" transform="translate(-2.852 -0.591)"/><ellipse class="f" cx="9.964" cy="7.695" rx="9.964" ry="7.695" transform="translate(691.732 116.299)"/><path class="g" d="M705.478,128.8c-4.4,0-7.824-3.335-6.968-7.038l4.569-20.845c.707-3.235,4.42-5.375,8.282-4.788s6.431,3.7,5.714,6.968l-4.609,20.775C711.839,126.79,708.842,128.8,705.478,128.8Z" transform="translate(-3.164 -0.437)"/><path class="d" d="M697.119,93.333s-5.624,21.99.289,25.951,14.275-.538,19.043-7.685a8.65,8.65,0,0,1,2.718-3.524c3.683-2.439,6.55-14.086-1.394-16.923C705.5,86.713,697.119,93.333,697.119,93.333Z" transform="translate(-3.148 -0.407)"/><path class="h" d="M693.316,88.428s2.668,8.491,11.3,8.3,9.955,1.055,11.209,3.265,1.672,6.968,1.672,6.968,2.827-5.385,4.5-4.589,3.673-3.982,2.469-9.885C722.175,81.281,686.876,71.406,693.316,88.428Z" transform="translate(-3.138 -0.36)"/><path class="f" d="M698.35,130.41l1.981,16.853,6.172-14.982Z" transform="translate(-3.164 -0.593)"/><path class="e" d="M732.114,155.35s11.209,12.941,10.95,17.779c-.239,4.141-5.883,23.542-7.486,29a4.211,4.211,0,0,0,.538,3.564c1,1.414,2.787,2.827,6.062,1.8,5.754-1.812,13.25-29.376,14.8-35.836,2.986-12.682-7.028-22.9-7.028-22.9S725.1,140.627,732.114,155.35Z" transform="translate(-3.312 -0.666)"/><path class="d" d="M739.139,206.334c2.807,1.991,2.23,5.346-3.892,8.441-5.634,2.847-8.86,1.8-11.667-.219,0,0,5.784-3.554,7.247-4.758.876-.727-2.13-4.241-.866-4.34C732.459,205.259,736.332,204.313,739.139,206.334Z" transform="translate(-3.279 -0.932)"/><path class="i" d="M211.335,371.12,58.373,397s-70.558,8.332-56.542,31.556,51.764-5.694,69.682.876,9.208,15.34.876,18.406S50.917,452.22,55.3,461.866s10.532,11.378,22.348,10.054S324.826,448.258,333.6,427.214,211.335,371.12,211.335,371.12Z" transform="translate(0.011 -1.687)"/><path class="j" d="M644.134,24.488v-.1c0-.647-.06-1.284-.119-1.911v-.418q-.06-.607-.149-1.214v-.338q-.109-.757-.259-1.493V18.8q-.249-1.2-.577-2.359l-.07-.249q-.328-1.115-.737-2.18v-.129l-.08-.189q-.239-.6-.5-1.175l-.08-.179q-.3-.657-.627-1.284l-.06-.129-.08-.139c-.3-.547-.6-1.085-.926-1.6v-.05l-.328-.179q-.339-.518-.7-1l-.119-.179-.1-.119q-.338-.458-.687-.886l-.05-.11h0q-.378-.458-.776-.886v-.05l-.219-.219-.6-.538-.09-.09-.259-.229-.428-.388-.119-.11-.259-.219-.408-.338-.129-.109-.269-.2-.428-.309-.139-.1-.289-.189-.388-.259-.129-.08-.319-.179-.4-.229-.119-.07-.348-.179-.4-.2-.11-.05-.348-.159-.418-.179h-.1l-.378-.139-.438-.159h-.09l-.348-.1L628.665.5h-.109l-.309-.1-.577-.129h-.418l-.627-.09h-.4L625.43,0H615l.806.05h.4l.627.09.408.07.577.129.418.1.518.149.438.129.438.159.468.179.418.179.468.209.4.2.468.239.4.229.448.269.388.259.428.289.4.3.408.309.408.338.378.319.428.388.348.328.518.528.259.269q.4.428.776.886l.09.119q.358.428.687.886l.209.3q.358.5.7,1l.139.209c.329.518.627,1.055.926,1.6l.149.269q.328.627.627,1.284l.08.179q.259.577.5,1.175l.119.319q.408,1.065.737,2.18l.07.249q.329,1.155.577,2.359v.209q.149.737.259,1.493v.338q.08.6.149,1.214V22.4c.06.627.1,1.274.119,1.911v1.115h0v313.4a8.071,8.071,0,0,1-.05,1.075v.408a9.813,9.813,0,0,1-.1,1.075v.279q-.07.647-.169,1.284v.239c-.05.338-.109.677-.179,1s-.119.567-.179.856l-.07.348q-.139.587-.3,1.165l-.09.309c-.08.279-.159.557-.249.826l-.149.438c-.08.229-.149.448-.229.677l-.189.488c-.08.2-.149.408-.229.607l-.229.528-.229.538-.289.607-.219.448c-.139.269-.279.538-.428.8l-.129.229q-.3.528-.607,1l-.169.249c-.169.269-.348.528-.528.786l-.229.319q-.289.4-.587.776l-.229.289q-.458.557-.936,1.085l-.149.149c-.428.458-.876.886-1.334,1.294l-.189.159q-.428.368-.876.707l-.259.2c-.348.259-.707.508-1.075.737l-.179.109q-.478.3-1,.557l-.289.149q-.567.284-1.165.538l-.149.06c-.348.139-.707.269-1.075.378l-.309.1c-.408.119-.816.229-1.234.309h-.09c-.388.08-.786.129-1.185.179h-.328c-.428,0-.866.06-1.294.06h10.452a9.316,9.316,0,0,0,1.294-.06h.328a5.977,5.977,0,0,0,1.185-.179h.09c.418-.08.826-.189,1.234-.309l.309-.1c.358-.109.717-.239,1.075-.378l.149-.06q.582-.239,1.165-.538l.289-.149q.488-.259,1-.557l.179-.109c.368-.229.727-.478,1.075-.737l.259-.2q.448-.338.876-.707l.139-.119h0c.458-.408.906-.836,1.334-1.294l.09-.09.06-.07q.488-.518.936-1.085l.08-.09.149-.189q.3-.378.587-.776l.149-.189.09-.129c.179-.259.358-.518.528-.786l.139-.2h0q.319-.508.607-1h0l.12-.219c.149-.259.289-.528.428-.8h0l.189-.4.289-.607v-.06l.209-.478.229-.528v-.06l.209-.538.189-.488h0c.07-.2.139-.408.209-.617l.149-.448h0c.08-.259.159-.528.239-.8l.09-.309h0q.159-.567.3-1.155h0a.628.628,0,0,1,.07-.348c.06-.279.129-.557.179-.836h0c.06-.328.119-.667.179-1v-.239h0q.1-.637.169-1.284h0v-.259c0-.358.07-.717.1-1.075v-.408a7.779,7.779,0,0,1,.05-1.075V25.5A1.869,1.869,0,0,0,644.134,24.488Z" transform="translate(-2.783)"/><path class="k" d="M613.926,0c10.631,0,19.252,11.418,19.252,25.5V337.827c0,14.1-8.621,25.513-19.252,25.513l-95.414-28.57c-10.631,0-19.252-11.428-19.252-25.5V41.809c0-14.1,8.621-25.5,19.252-25.5Z" transform="translate(-2.259)"/><path class="j" d="M332.214,87.708v-.179a11.223,11.223,0,0,0-.09-1.732v-.189q-.09-1.065-.249-2.11v-.09c-.07-.468-.159-.926-.249-1.384a1.778,1.778,0,0,0-.09-.4c-.07-.319-.139-.647-.219-1v-.2l-.05-.179c-.169-.627-.348-1.244-.548-1.852l-.08-.239c-.209-.627-.438-1.254-.7-1.852v-.06c-.249-.6-.528-1.185-.806-1.752l-.08-.169c-.279-.548-.577-1.085-.9-1.6l-.08-.149-.09-.129c-.169-.269-.338-.528-.508-.786l-.169-.259q-.348-.508-.717-1h0l-.07-.09a12.41,12.41,0,0,0-1-1.145l-.109-.139-.07-.08q-.438-.478-.9-.926h0l-.2-.179-.6-.548-.1-.09-.249-.2-.468-.378-.139-.109-.259-.189-.428-.309-.149-.11-.3-.189-.348-.229-.129-.09-.368-.209-.328-.189-.09-.05-.557-.279-.179-.09h0l-.767-.338h0l-.219-.08-.5-.189h-.139l-.309-.1-.328-.11-.239-.07-.328-.09-.219-.06-.358-.08-.328-.07h-.129l-.5-.08h-.348l-.627-.06H303.7l.687.07h.289l.627.1.328.07.577.139.328.09.567.169.309.1.637.239.219.08.846.378.179.09.667.2.328.189.5.3.348.229.448.3.428.309.4.3.468.378.348.3.6.548.239.219q.463.448.9.926l.189.209q.488.547,1,1.145l.1.129q.368.478.717,1l.169.259c.169.259.348.518.508.786l.169.279c.309.518.617,1.055.9,1.6l.08.169c.289.567.557,1.155.806,1.752v.06c.249.6.478,1.224.7,1.852l.08.239c.2.607.378,1.224.547,1.861l.1.378c.08.319.149.637.219,1a1.912,1.912,0,0,0,.09.4c.09.458.179.916.249,1.384v.09q.159,1,.249,2.11v.2c0,.567.08,1.145.09,1.732V401.953a9.968,9.968,0,0,1-.08,1.483h0a12.886,12.886,0,0,1-.139,1.4,1.233,1.233,0,0,1-.07.5,5.241,5.241,0,0,0-.119.836c-.04.279-.06.368-.1.547s-.09.5-.139.747l-.119.557c-.05.229-.109.468-.159.7l-.139.557-.179.657-.169.548-.209.637-.189.538-.229.617-.2.518-.269.627-.209.478-.309.657-.209.438c-.129.249-.259.5-.4.737l-.179.328q-.309.538-.627,1.055l-.129.2q-.279.438-.577.846l-.229.319q-.289.4-.6.776l-.229.289c-.309.368-.617.727-.936,1.075l-.139.139c-.428.448-.866.876-1.324,1.274l-.109.09a11.475,11.475,0,0,1-1,.776l-.269.2c-.358.269-.727.518-1.1.757l-.1.06c-.348.219-.707.418-1.065.607l-.3.149c-.388.2-.786.378-1.195.548h-.07c-.378.149-.766.289-1.165.408l-.319.1c-.418.119-.836.229-1.264.319h0c-.418.08-.836.139-1.254.189h-.328c-.438,0-.876.07-1.324.07h10.283a8.371,8.371,0,0,0,1.324-.07h.328a6.7,6.7,0,0,0,1.254-.189h0c.428-.09.846-.2,1.264-.319l.319-.1c.388-.119.776-.259,1.165-.408h.07c.408-.159.8-.348,1.195-.548l.3-.149c.358-.189.717-.388,1.065-.607l.1-.06c.378-.239.737-.488,1.1-.757l.269-.2c.328-.249.647-.508,1-.776l.09-.07h0c.458-.4.9-.826,1.324-1.274l.09-.09v-.06c.319-.338.637-.7.936-1.075l.09-.1.149-.189q.309-.378.6-.776l.149-.189.08-.119q.3-.418.577-.846l.109-.169h0q.329-.518.627-1.055h0l.149-.289c.129-.239.269-.488.4-.737l.05-.1.159-.338.309-.657.07-.139.139-.338.269-.627.08-.189.119-.328.229-.617.08-.219.1-.319.209-.637.08-.259.08-.3.179-.647.08-.289.06-.269c.06-.229.109-.458.159-.687s.05-.219.08-.328v-.229c.05-.249.1-.5.139-.747s0-.249.07-.368v-.179a6.039,6.039,0,0,1,.119-.836.882.882,0,0,1,.06-.388v-.109c.06-.468.109-.936.139-1.4h0c0-.488.06-1,.08-1.483V88.5A1.463,1.463,0,0,0,332.214,87.708Z" transform="translate(-1.364 -0.288)"/><path class="k" d="M301.91,63c10.771,0,19.471,11.428,19.471,25.513V400.827c0,14.1-8.73,25.513-19.5,25.513l-96.619-28.57c-10.771,0-19.5-11.428-19.5-25.5V104.809c0-14.1,8.73-25.5,19.5-25.5Z" transform="translate(-0.834 -0.286)"/><ellipse class="j" cx="13.339" cy="16.256" rx="13.339" ry="16.256" transform="translate(233.873 169.396)"/><path class="j" d="M298.789,167.274h0a10.452,10.452,0,0,1-6.729-9.765V93.272a10.452,10.452,0,0,1,6.728-9.765h0a10.452,10.452,0,0,1,14.175,9.765v64.237a10.452,10.452,0,0,1-14.175,9.765Z" transform="translate(-1.317 -0.377)"/><ellipse class="l" cx="6.122" cy="7.466" rx="6.122" ry="7.466" transform="translate(295.511 90.258)"/><ellipse class="l" cx="6.122" cy="7.466" rx="6.122" ry="7.466" transform="translate(295.511 115.811)"/><ellipse class="l" cx="6.122" cy="7.466" rx="6.122" ry="7.466" transform="translate(295.511 141.354)"/><ellipse class="m" cx="27.893" cy="42.088" rx="27.893" ry="42.088" transform="translate(353.616 101.536)"/><path class="m" d="M25.732,0C39.944,0,51.465,18.843,51.465,42.088S39.944,84.176,25.732,84.176,0,65.332,0,42.088,11.521,0,25.732,0Z" transform="translate(361.788 101.536)"/><path class="n" d="M504.28,42.68l.239,262.41a13.03,13.03,0,0,0,9.178,12.383l87.421,23.1A13.031,13.031,0,0,0,618.04,328.1l-.6-300.916a13.031,13.031,0,0,0-15.559-12.762l-87.1,15.42a13.03,13.03,0,0,0-10.5,12.841Z" transform="translate(-2.282 -0.064)"/><path class="m" d="M27.893,0C43.3,0,55.785,18.843,55.785,42.088S43.3,84.176,27.893,84.176,0,65.332,0,42.088,12.488,0,27.893,0Z" transform="translate(398.341 207.831)"/><ellipse class="m" cx="25.732" cy="42.088" rx="25.732" ry="42.088" transform="translate(406.514 207.831)"/><ellipse class="m" cx="27.893" cy="42.088" rx="27.893" ry="42.088" transform="translate(514.332 207.831)"/><path class="o" d="M329.06,171.265,430.6,149.823,428.765,97.84l113.82,66.277-112.934,135.8,2.439-55.238L331.708,281.073Z" transform="translate(-1.485 -0.445)"/><ellipse class="m" cx="25.732" cy="42.088" rx="25.732" ry="42.088" transform="translate(522.504 207.831)"/><ellipse class="m" cx="27.893" cy="42.088" rx="27.893" ry="42.088" transform="translate(471.01 93.573)"/><ellipse class="m" cx="25.732" cy="42.088" rx="25.732" ry="42.088" transform="translate(479.182 93.573)"/><path class="k" d="M580.689,27.456,536.59,35.3c-3.982.707-5.813-1.991-6.52-5.973l.617-7.715L589.25,11.2l-.627,7.765C589.339,22.946,584.681,26.749,580.689,27.456Z" transform="translate(-2.399 -0.051)"/><path class="p" d="M518.976,126.655c-.627-5.286-4.181-7.386-8.591-8.312l-.328-7.287-3.395-.329.319,7.1c-.9-.09-1.8-.149-2.708-.219l-.328-7.137-3.395-.329.328,7.287c-.737-.05-1.453-.1-2.16-.169h0L494,116.77l.219,4.738s2.509.179,2.469.239a2.319,2.319,0,0,1,2.041,2.13l.378,8.3a2.169,2.169,0,0,1,.358.07h-.358l.528,11.627c0,.557-.249,1.433-1.214,1.344,0,.05-2.469-.239-2.469-.239l-.438,5.226,4.42.428,2.429.259.338,7.366,3.395.329-.328-7.287c.936.119,1.832.209,2.718.3l.329,7.257,3.394.328-.289-7.376c5.694.129,9.606-1.364,9.785-8.322.149-5.594-1.991-8.312-5.286-9.636,1.911-1.115,3.036-3.3,2.578-7.177h0Zm-4.071,15.29c.249,5.5-6.968,4.181-9.3,3.982l-.438-9.765c2.3.219,9.487.06,9.746,5.8Zm-2.21-13.936c.229,4.977-5.823,3.842-7.745,3.653l-.4-8.85C506.473,123,512.456,122.812,512.695,128.008Z" transform="translate(-2.235 -0.501)"/><path class="p" d="M389.507,154.511,377.89,145.89l11.617,20.566,11.617-20.566Z" transform="translate(-1.707 -0.663)"/><path class="p" d="M401.114,143,389.507,118.78,377.89,143l11.617,8.631Z" transform="translate(-1.707 -0.54)"/><path class="p" d="M435.182,251.632l-2.8,11.418h14.932a.836.836,0,0,1,.776.886h0v.3l-1.3,5.435a1,1,0,0,1-1,.866H423L426.83,254.7l-4.29,1.573,1-3.623,4.29-1.573,5.4-22.219a1,1,0,0,1,1-.866h5.7a.836.836,0,0,1,.776.886h0v.3l-4.539,18.734,4.29-1.573-.906,3.783Z" transform="translate(-1.91 -1.036)"/><g transform="translate(533.616 230.895)"><path class="p" d="M544.18,249.8a2.459,2.459,0,0,0,1.871,2.757h.119c1.1,0,1.991-1.175,1.991-2.618s-.886-2.618-1.991-2.608a2.329,2.329,0,0,0-1.991,2.469Z" transform="translate(-536.079 -232.02)"/><path class="p" d="M536.727,249.13a.75.75,0,0,0-.677.8.8.8,0,0,0,.607.886.75.75,0,0,0,.677-.8A.8.8,0,0,0,536.727,249.13Z" transform="translate(-536.042 -232.028)"/><path class="p" d="M544.056,234.553a1,1,0,0,0,.279-1.135.587.587,0,0,0-.866-.368,1,1,0,0,0-.279,1.125C543.349,234.6,543.737,234.772,544.056,234.553Z" transform="translate(-536.074 -231.955)"/><path class="p" d="M546.073,239.2a1.523,1.523,0,0,0,.438-1.752.9.9,0,0,0-1.334-.577,1.523,1.523,0,0,0-.438,1.752.9.9,0,0,0,1.334.577Z" transform="translate(-536.081 -231.972)"/><path class="p" d="M539.258,242.4a.717.717,0,0,0,1.135-.309,1.3,1.3,0,0,0-.239-1.493.717.717,0,0,0-1.135.309h0a1.294,1.294,0,0,0,.239,1.493Z" transform="translate(-536.055 -231.989)"/><path class="p" d="M540.465,248.67c-.547,0-1,.508-1.045,1.234a1.224,1.224,0,0,0,.936,1.374c.547,0,1-.508,1.045-1.234h0a1.224,1.224,0,0,0-.936-1.374Z" transform="translate(-536.057 -232.026)"/><path class="p" d="M539.368,257.47a1.254,1.254,0,0,0-.358,1.453.737.737,0,0,0,1.1.478,1.254,1.254,0,0,0,.358-1.453h0a.747.747,0,0,0-1.1-.478Z" transform="translate(-536.055 -232.066)"/><path class="p" d="M543.247,245.987a1,1,0,0,0,1.613-.448,1.832,1.832,0,0,0-.338-2.12,1,1,0,0,0-1.613.448,1.842,1.842,0,0,0,.338,2.12Z" transform="translate(-536.072 -232.001)"/><path class="p" d="M555.548,239.1a.866.866,0,0,0,1.374-.368,1.583,1.583,0,0,0-.279-1.812.866.866,0,0,0-1.374.368h0A1.553,1.553,0,0,0,555.548,239.1Z" transform="translate(-536.129 -231.972)"/><path class="p" d="M557.589,234.473a.558.558,0,0,0,.886-.249,1,1,0,0,0-.189-1.175.558.558,0,0,0-.886.239,1.055,1.055,0,0,0,.189,1.185Z" transform="translate(-536.139 -231.954)"/><path class="p" d="M555.69,247.3c-1.1-.08-1.991,1-2.09,2.469a2.4,2.4,0,0,0,1.871,2.757h.109c1.1,0,1.991-1.175,1.991-2.618a2.389,2.389,0,0,0-1.871-2.6Z" transform="translate(-536.122 -232.02)"/><path class="p" d="M546.739,245.743a1.991,1.991,0,0,0,1.782,1.443c1.095,0,1.991-1.175,1.991-2.618a3.336,3.336,0,0,0-.209-1.185c-.5-1.294-1.692-1.812-2.668-1.155a3.056,3.056,0,0,0-.886,3.524Z" transform="translate(-536.09 -231.995)"/><path class="p" d="M562.385,242.4a1.264,1.264,0,0,0,.358-1.453.737.737,0,0,0-1.1-.468,1.254,1.254,0,0,0-.358,1.443.753.753,0,0,0,1.115.478Z" transform="translate(-536.156 -231.988)"/><path class="p" d="M557.327,243.239a1.792,1.792,0,0,0-.518,2.061c.289.757,1,1.065,1.563.687a1.792,1.792,0,0,0,.518-2.061,1.065,1.065,0,0,0-1.563-.687Z" transform="translate(-536.136 -232.001)"/><path class="p" d="M550.806,234.08a.968.968,0,0,0,.866-1,1,1,0,0,0-.776-1.135.961.961,0,0,0-.866,1,1,1,0,0,0,.777,1.145Z" transform="translate(-536.106 -231.95)"/><path class="p" d="M550.795,240.866c.647.05,1.195-.6,1.224-1.453a1.433,1.433,0,0,0-1.1-1.613c-.647-.05-1.195.6-1.224,1.453a1.433,1.433,0,0,0,1.1,1.613Z" transform="translate(-536.104 -231.977)"/><path class="p" d="M544.432,256.627a1.792,1.792,0,0,0,.518-2.061c-.289-.757-1-1.065-1.563-.687a1.792,1.792,0,0,0-.518,2.061A1.059,1.059,0,0,0,544.432,256.627Z" transform="translate(-536.073 -232.049)"/><path class="p" d="M551.558,243.125a3.136,3.136,0,0,0,.577,3.613,1.722,1.722,0,0,0,2.747-.757,3.136,3.136,0,0,0-.577-3.614,1.653,1.653,0,0,0-1.085-.428A1.931,1.931,0,0,0,551.558,243.125Z" transform="translate(-536.111 -231.995)"/><path class="p" d="M554.983,254.113c-.5-1.294-1.692-1.812-2.668-1.155a3.036,3.036,0,0,0-.886,3.514c.5,1.294,1.692,1.812,2.668,1.155h0a2.986,2.986,0,0,0,.886-3.484Z" transform="translate(-536.111 -232.044)"/><path class="p" d="M558.512,253.929a1,1,0,0,0-1.613.448,1.832,1.832,0,0,0,.338,2.12,1,1,0,0,0,1.613-.448,1.842,1.842,0,0,0-.338-2.12Z" transform="translate(-536.136 -232.049)"/><path class="p" d="M562.341,249.994a1.224,1.224,0,0,0-.936-1.374c-.548,0-1,.508-1.045,1.234a1.224,1.224,0,0,0,.936,1.374h0C561.833,251.258,562.311,250.691,562.341,249.994Z" transform="translate(-536.153 -232.026)"/><path class="p" d="M565.107,249.05a.75.75,0,0,0-.677.8.8.8,0,0,0,.607.886.75.75,0,0,0,.677-.8.8.8,0,0,0-.607-.886Z" transform="translate(-536.171 -232.028)"/><path class="p" d="M562.5,257.469a.717.717,0,0,0-1.135.309,1.3,1.3,0,0,0,.239,1.493.717.717,0,0,0,1.135-.309,1.294,1.294,0,0,0-.239-1.493Z" transform="translate(-536.157 -232.065)"/><path class="p" d="M544.165,265.4a.557.557,0,0,0-.886.239,1,1,0,0,0,.179,1.175.558.558,0,0,0,.886-.239h0A1,1,0,0,0,544.165,265.4Z" transform="translate(-536.075 -232.101)"/><path class="p" d="M557.708,265.32a1,1,0,0,0-.279,1.135.587.587,0,0,0,.866.368,1,1,0,0,0,.279-1.125C558.415,265.27,558.027,265.1,557.708,265.32Z" transform="translate(-536.139 -232.101)"/><path class="p" d="M550.193,256.732a3.156,3.156,0,0,0-.577-3.623,1.732,1.732,0,0,0-2.757.757,3.146,3.146,0,0,0,.577,3.623,1.653,1.653,0,0,0,1.085.428,1.891,1.891,0,0,0,1.672-1.185Z" transform="translate(-536.09 -232.044)"/><path class="p" d="M546.213,260.769a.866.866,0,0,0-1.374.368,1.583,1.583,0,0,0,.279,1.812.866.866,0,0,0,1.374-.368h0a1.563,1.563,0,0,0-.279-1.812Z" transform="translate(-536.081 -232.08)"/><path class="p" d="M550.876,265.79a.968.968,0,0,0-.866,1,1,1,0,0,0,.776,1.135.961.961,0,0,0,.866-1,1,1,0,0,0-.777-1.145Z" transform="translate(-536.106 -232.104)"/><path class="p" d="M550.874,259c-.647-.05-1.195.6-1.224,1.453a1.433,1.433,0,0,0,1.105,1.613,1.359,1.359,0,0,0,1.224-1.453A1.434,1.434,0,0,0,550.874,259Z" transform="translate(-536.104 -232.073)"/><path class="p" d="M555.687,260.669a1.523,1.523,0,0,0-.438,1.762.9.9,0,0,0,1.334.567,1.523,1.523,0,0,0,.438-1.752c-.249-.637-.846-.916-1.344-.577Z" transform="translate(-536.129 -232.08)"/></g><path class="q" d="M92.494,398.628s-5.286,3.574-7.605,5.545,7.964,5.973,7.605,14.394,5.973,10.4,10.89,10.691,4.908-4.131,4.908-4.131-9.467-13.13-4.848-23.533S92.494,398.628,92.494,398.628Z" transform="translate(-0.374 -1.801)"/><path class="r" d="M125.716,287l-1.991,55.288c-5.415,5.316-12.264,19.909-29.645,56.92l8.372,5.644c9.716-6.869,29.923-40.415,37.877-49.822a13.7,13.7,0,0,0,2.688-4.977l16.266-47.135Z" transform="translate(-0.417 -1.305)"/><path class="d" d="M172.617,206.09c.747-.936.319,6.48,1.224,5.873,2.708-1.822,7.416-9.556,9.526-7.894,2.807,2.23,1.662,9.407-1.314,13.15s-7.655,4.977-10.462,2.757S169.651,209.843,172.617,206.09Z" transform="translate(-0.762 -0.927)"/><path class="d" d="M133.094,204.717c0,.388.259,3.544.388,4.559.916,7.466,3.584,19.252,9.765,23.533.239.139.458.319.7.438l.7.368c.08,0,.109.119.249.129l.189.07h.259a7.794,7.794,0,0,0,3.275-.567c8.72-2.986,21.183-14.992,27.733-21.392a2.509,2.509,0,0,1,3.723,3.325c-6.331,8.1-14.046,17.659-22.278,23.891-3.514,2.628-7.625,4.977-12.005,5.385a10.876,10.876,0,0,1-2.19,0,12.743,12.743,0,0,1-2.329-.4,20.514,20.514,0,0,1-3.444-1.294c-11.866-5.694-18.286-22.547-20.9-35.518-.179-1-.388-2.4-.368-2.3a8.322,8.322,0,1,1,16.5-.309Z" transform="translate(-0.519 -0.888)"/><path class="q" d="M172.834,429.041s-2.747,14.2-.06,15.668,10.741-2.747,16.773-2.359,15.848-1.613,16.465-4.579-3.245-3.882-14.444-5.973-13.548-6.968-13.548-6.968Z" transform="translate(-0.769 -1.931)"/><path class="s" d="M125.849,267.3s-5.306,16.325,0,19.591,24.886,17.59,24.886,17.59,7.605,37.011,8.163,46.786a210.915,210.915,0,0,0,5.445,39.42c3.982,16.345,8.8,35.836,8.262,37.578s4.042,2.379,7.506.657,8.591-125.308,6.54-150.2S125.849,267.3,125.849,267.3Z" transform="translate(-0.551 -1.199)"/><path class="d" d="M170.5,185.6l-4.758-5.186,2.379-3.872s5.176,3.673,7.824,0,3.823-29.864-1.682-34.97-22.806,2.528-22.806,11.945,5.306,22.039.816,23.672a7.436,7.436,0,0,0-4.9,5.913Z" transform="translate(-0.659 -0.636)"/><path class="h" d="M171.219,131.391s8.312,1.553,7.366,10.124-11.04,17.211-15.529,17.62,1.433,9.955-2.24,13.468-7.964,4.9-12.244-1.433l-4.29-6.331s-8.183-12.732-1-21.9S152.037,125.268,171.219,131.391Z" transform="translate(-0.627 -0.588)"/><path class="t" d="M152.174,177.313s-16.734-4.3-20.815,1.672-8.163,89.79-6.122,94.479,29.993,26.529,44.895,21.223,16.525-16.325,16.525-16.325l-2.041-51.425s6.739-.816,8.959-4.9-3.265-22.238-11.02-28.769S152.174,177.313,152.174,177.313Z" transform="translate(-0.556 -0.799)"/><path class="t" d="M125.184,182.293c-5.823,3.554-14.623,19.909-11.746,26.111,1.274,2.738,7.2,4.728,11.209,6.51,13.359,5.973,14.414-34.93,14.414-34.93h0a9.377,9.377,0,0,0-9.955-.1Z" transform="translate(-0.503 -0.812)"/><path class="d" d="M231.987,213.71c.747-.936.319,6.48,1.224,5.873,2.708-1.822,7.416-9.556,9.526-7.894,2.807,2.23,1.662,9.407-1.314,13.15s-7.655,4.977-10.462,2.757S229,217.453,231.987,213.71Z" transform="translate(-1.032 -0.961)"/><path class="u" d="M185.946,254.135s-8.74-10.612-10.731-21.343a85.609,85.609,0,0,1-.806-21.343l10.95,24.359Z" transform="translate(-0.781 -0.961)"/><path class="d" d="M192.474,212.328c0,.388.259,3.544.388,4.559.916,7.466,3.584,19.252,9.765,23.533.239.139.458.319.7.438l.7.368c.08,0,.11.119.249.129l.189.07h.259a7.8,7.8,0,0,0,3.275-.557c8.72-2.986,21.183-14.992,27.733-21.392a2.509,2.509,0,0,1,3.723,3.325c-6.331,8.1-14.046,17.659-22.278,23.891-3.514,2.628-7.625,4.977-12.005,5.385a10.876,10.876,0,0,1-2.19,0,12.751,12.751,0,0,1-2.329-.4,20.517,20.517,0,0,1-3.444-1.294c-11.846-5.575-18.277-22.5-20.865-35.438-.179-1-.388-2.4-.368-2.3a8.322,8.322,0,1,1,16.5-.309Z" transform="translate(-0.789 -0.923)"/><path class="t" d="M177.187,231.487s7.426,1.374,12.553,0c3.912-1.045,6.331-7.356,6.331-7.356s1.891-17.012-8.113-24.409S169.94,208.233,177.187,231.487Z" transform="translate(-0.782 -0.9)"/></g></g></g></svg>